<?xml version="1.0" encoding="UTF-8" standalone="no"?>
<svg
   xmlns:dc="http://purl.org/dc/elements/1.1/"
   xmlns:cc="http://creativecommons.org/ns#"
   xmlns:rdf="http://www.w3.org/1999/02/22-rdf-syntax-ns#"
   xmlns:svg="http://www.w3.org/2000/svg"
   xmlns="http://www.w3.org/2000/svg"
   version="1.1"
   id="svg14585"
   viewBox="0 0 744.09448819 1052.3622047"
   height="297mm"
   width="210mm">
  <defs
     id="defs14587" />
  <metadata
     id="metadata14590">
    <rdf:RDF>
      <cc:Work
         rdf:about="">
        <dc:format>image/svg+xml</dc:format>
        <dc:type
           rdf:resource="http://purl.org/dc/dcmitype/StillImage" />
        <dc:title></dc:title>
      </cc:Work>
    </rdf:RDF>
  </metadata>
  <g
     id="layer1">
    <g
       id="g15139"
       transform="translate(2.3838457,-0.74829429)">
      <circle
         cx="7.8443718"
         cy="-69.780014"
         id="circle236"
         style="fill:#008080;fill-opacity:1"
         r="50"
         transform="matrix(-0.63315581,0.77402436,-0.77402436,-0.63315581,0,0)" />
      <g
         id="g238"
         transform="translate(-7.0005,-6.999)">
        <path
           d="M 57,98.501 43.999,85.5 46.217,83.282 30.717,67.781 28.499,70 15.498,57 34.987,37.51 l 13.002,13 -4.234,4.235 2.66,2.661 10.992,-10.993 -2.66,-2.66 -4.089,4.089 L 37.656,34.841 57,15.497 70.001,28.498 67.784,30.716 83.282,46.216 85.501,43.998 98.503,57 79.159,76.343 66.157,63.342 70.246,59.253 68.083,57.09 57.091,68.083 59.253,70.245 63.487,66.011 76.49,79.014 57,98.501 Z"
           id="path240"
           style="fill:#ffffff" />
      </g>
      <text
         xml:space="preserve"
         style="font-style:normal;font-variant:normal;font-weight:normal;font-stretch:normal;font-size:7.5px;line-height:125%;font-family:'Ubuntu Mono';-inkscape-font-specification:'Ubuntu Mono';letter-spacing:0px;word-spacing:0px;fill:#000000;fill-opacity:1;stroke:none;stroke-width:1px;stroke-linecap:butt;stroke-linejoin:miter;stroke-opacity:1"
         x="-28.676273"
         y="40.014156"
         id="text6367"
         transform="matrix(0.70916395,-0.70504361,0.70504361,0.70916395,0,0)"><tspan
           id="tspan6369"
           x="-28.676273"
           y="40.014156"
           style="font-style:normal;font-variant:normal;font-weight:bold;font-stretch:normal;font-size:3.75px;font-family:FreeMono;-inkscape-font-specification:'FreeMono Bold';fill:#ffffff">MAIDSTONE-HACKSPACE.ORG.UK</tspan></text>
    </g>
  </g>
</svg>
